<mxfile modified="2024-10-14T00:55:15.760Z" host="app.diagrams.net" agent="Mozilla/5.0 (Windows NT 10.0; Win64; x64) AppleWebKit/537.36 (KHTML, like Gecko) Chrome/129.0.0.0 Safari/537.36 Edg/129.0.0.0" etag="yglHUCXqrdFUuD83dPCZ" version="24.6.5" type="device">
  <diagram id="f106602c-feb2-e66a-4537-3a34d633f6aa" name="Page-1">
    <mxGraphModel dx="1389" dy="531" grid="1" gridSize="10" guides="1" tooltips="1" connect="1" arrows="1" fold="1" page="1" pageScale="1" pageWidth="1169" pageHeight="827" background="none" math="0" shadow="0">
      <root>
        <mxCell id="0" />
        <mxCell id="1" parent="0" />
        <mxCell id="OLYzyWEOcMifiOYD3r6g-41" value="" style="shape=ext;double=1;rounded=1;whiteSpace=wrap;html=1;" vertex="1" parent="1">
          <mxGeometry x="320" y="190" width="680" height="370" as="geometry" />
        </mxCell>
        <mxCell id="OLYzyWEOcMifiOYD3r6g-2" value="ClusterIP" style="aspect=fixed;sketch=0;html=1;dashed=0;whitespace=wrap;verticalLabelPosition=bottom;verticalAlign=top;fillColor=#2875E2;strokeColor=#ffffff;points=[[0.005,0.63,0],[0.1,0.2,0],[0.9,0.2,0],[0.5,0,0],[0.995,0.63,0],[0.72,0.99,0],[0.5,1,0],[0.28,0.99,0]];shape=mxgraph.kubernetes.icon2;kubernetesLabel=1;prIcon=svc" vertex="1" parent="1">
          <mxGeometry x="700" y="328" width="50" height="48" as="geometry" />
        </mxCell>
        <mxCell id="OLYzyWEOcMifiOYD3r6g-3" value="NodePort" style="aspect=fixed;sketch=0;html=1;dashed=0;whitespace=wrap;verticalLabelPosition=bottom;verticalAlign=top;fillColor=#2875E2;strokeColor=#ffffff;points=[[0.005,0.63,0],[0.1,0.2,0],[0.9,0.2,0],[0.5,0,0],[0.995,0.63,0],[0.72,0.99,0],[0.5,1,0],[0.28,0.99,0]];shape=mxgraph.kubernetes.icon2;kubernetesLabel=1;prIcon=svc" vertex="1" parent="1">
          <mxGeometry x="360" y="328" width="50" height="48" as="geometry" />
        </mxCell>
        <mxCell id="OLYzyWEOcMifiOYD3r6g-4" value="" style="aspect=fixed;sketch=0;html=1;dashed=0;whitespace=wrap;verticalLabelPosition=bottom;verticalAlign=top;fillColor=#2875E2;strokeColor=#ffffff;points=[[0.005,0.63,0],[0.1,0.2,0],[0.9,0.2,0],[0.5,0,0],[0.995,0.63,0],[0.72,0.99,0],[0.5,1,0],[0.28,0.99,0]];shape=mxgraph.kubernetes.icon2;kubernetesLabel=1;prIcon=pvc" vertex="1" parent="1">
          <mxGeometry x="790" y="220" width="50" height="48" as="geometry" />
        </mxCell>
        <mxCell id="OLYzyWEOcMifiOYD3r6g-28" style="edgeStyle=orthogonalEdgeStyle;rounded=0;orthogonalLoop=1;jettySize=auto;html=1;exitX=0.995;exitY=0.63;exitDx=0;exitDy=0;exitPerimeter=0;" edge="1" parent="1" source="OLYzyWEOcMifiOYD3r6g-6">
          <mxGeometry relative="1" as="geometry">
            <mxPoint x="700" y="357.57142857142867" as="targetPoint" />
          </mxGeometry>
        </mxCell>
        <mxCell id="OLYzyWEOcMifiOYD3r6g-6" value="" style="aspect=fixed;sketch=0;html=1;dashed=0;whitespace=wrap;verticalLabelPosition=bottom;verticalAlign=top;fillColor=#2875E2;strokeColor=#ffffff;points=[[0.005,0.63,0],[0.1,0.2,0],[0.9,0.2,0],[0.5,0,0],[0.995,0.63,0],[0.72,0.99,0],[0.5,1,0],[0.28,0.99,0]];shape=mxgraph.kubernetes.icon2;kubernetesLabel=1;prIcon=pod" vertex="1" parent="1">
          <mxGeometry x="590" y="328" width="50" height="48" as="geometry" />
        </mxCell>
        <mxCell id="OLYzyWEOcMifiOYD3r6g-7" value="" style="aspect=fixed;sketch=0;html=1;dashed=0;whitespace=wrap;verticalLabelPosition=bottom;verticalAlign=top;fillColor=#2875E2;strokeColor=#ffffff;points=[[0.005,0.63,0],[0.1,0.2,0],[0.9,0.2,0],[0.5,0,0],[0.995,0.63,0],[0.72,0.99,0],[0.5,1,0],[0.28,0.99,0]];shape=mxgraph.kubernetes.icon2;kubernetesLabel=1;prIcon=pv" vertex="1" parent="1">
          <mxGeometry x="694" y="220" width="50" height="48" as="geometry" />
        </mxCell>
        <mxCell id="OLYzyWEOcMifiOYD3r6g-8" value="" style="aspect=fixed;sketch=0;html=1;dashed=0;whitespace=wrap;verticalLabelPosition=bottom;verticalAlign=top;fillColor=#2875E2;strokeColor=#ffffff;points=[[0.005,0.63,0],[0.1,0.2,0],[0.9,0.2,0],[0.5,0,0],[0.995,0.63,0],[0.72,0.99,0],[0.5,1,0],[0.28,0.99,0]];shape=mxgraph.kubernetes.icon2;kubernetesLabel=1;prIcon=hpa" vertex="1" parent="1">
          <mxGeometry x="490" y="220" width="50" height="48" as="geometry" />
        </mxCell>
        <mxCell id="OLYzyWEOcMifiOYD3r6g-11" value="ConfigMap&lt;div&gt;&lt;span style=&quot;background-color: initial;&quot;&gt;Easyorder&lt;/span&gt;&lt;/div&gt;" style="aspect=fixed;sketch=0;html=1;dashed=0;whitespace=wrap;verticalLabelPosition=bottom;verticalAlign=top;fillColor=#2875E2;strokeColor=#ffffff;points=[[0.005,0.63,0],[0.1,0.2,0],[0.9,0.2,0],[0.5,0,0],[0.995,0.63,0],[0.72,0.99,0],[0.5,1,0],[0.28,0.99,0]];shape=mxgraph.kubernetes.icon2;kubernetesLabel=1;prIcon=cm" vertex="1" parent="1">
          <mxGeometry x="490" y="430" width="50" height="48" as="geometry" />
        </mxCell>
        <mxCell id="OLYzyWEOcMifiOYD3r6g-12" value="" style="aspect=fixed;sketch=0;html=1;dashed=0;whitespace=wrap;verticalLabelPosition=bottom;verticalAlign=top;fillColor=#2875E2;strokeColor=#ffffff;points=[[0.005,0.63,0],[0.1,0.2,0],[0.9,0.2,0],[0.5,0,0],[0.995,0.63,0],[0.72,0.99,0],[0.5,1,0],[0.28,0.99,0]];shape=mxgraph.kubernetes.icon2;kubernetesLabel=1;prIcon=deploy" vertex="1" parent="1">
          <mxGeometry x="790" y="328" width="50" height="48" as="geometry" />
        </mxCell>
        <mxCell id="OLYzyWEOcMifiOYD3r6g-14" value="ConfigMap&lt;div&gt;EasyorderDatabase&lt;/div&gt;" style="aspect=fixed;sketch=0;html=1;dashed=0;whitespace=wrap;verticalLabelPosition=bottom;verticalAlign=top;fillColor=#2875E2;strokeColor=#ffffff;points=[[0.005,0.63,0],[0.1,0.2,0],[0.9,0.2,0],[0.5,0,0],[0.995,0.63,0],[0.72,0.99,0],[0.5,1,0],[0.28,0.99,0]];shape=mxgraph.kubernetes.icon2;kubernetesLabel=1;prIcon=cm" vertex="1" parent="1">
          <mxGeometry x="790" y="430" width="50" height="48" as="geometry" />
        </mxCell>
        <mxCell id="OLYzyWEOcMifiOYD3r6g-15" value="" style="aspect=fixed;sketch=0;html=1;dashed=0;whitespace=wrap;verticalLabelPosition=bottom;verticalAlign=top;fillColor=#2875E2;strokeColor=#ffffff;points=[[0.005,0.63,0],[0.1,0.2,0],[0.9,0.2,0],[0.5,0,0],[0.995,0.63,0],[0.72,0.99,0],[0.5,1,0],[0.28,0.99,0]];shape=mxgraph.kubernetes.icon2;kubernetesLabel=1;prIcon=deploy" vertex="1" parent="1">
          <mxGeometry x="490" y="328" width="50" height="48" as="geometry" />
        </mxCell>
        <mxCell id="OLYzyWEOcMifiOYD3r6g-17" style="edgeStyle=orthogonalEdgeStyle;rounded=0;orthogonalLoop=1;jettySize=auto;html=1;exitX=0.995;exitY=0.63;exitDx=0;exitDy=0;exitPerimeter=0;entryX=0.005;entryY=0.63;entryDx=0;entryDy=0;entryPerimeter=0;" edge="1" parent="1" source="OLYzyWEOcMifiOYD3r6g-3" target="OLYzyWEOcMifiOYD3r6g-15">
          <mxGeometry relative="1" as="geometry" />
        </mxCell>
        <mxCell id="OLYzyWEOcMifiOYD3r6g-19" value="" style="aspect=fixed;sketch=0;html=1;dashed=0;whitespace=wrap;verticalLabelPosition=bottom;verticalAlign=top;fillColor=#2875E2;strokeColor=#ffffff;points=[[0.005,0.63,0],[0.1,0.2,0],[0.9,0.2,0],[0.5,0,0],[0.995,0.63,0],[0.72,0.99,0],[0.5,1,0],[0.28,0.99,0]];shape=mxgraph.kubernetes.icon2;kubernetesLabel=1;prIcon=pod" vertex="1" parent="1">
          <mxGeometry x="590" y="260" width="50" height="48" as="geometry" />
        </mxCell>
        <mxCell id="OLYzyWEOcMifiOYD3r6g-20" value="Easyor&lt;span style=&quot;background-color: initial;&quot;&gt;der Pods&lt;/span&gt;" style="aspect=fixed;sketch=0;html=1;dashed=0;whitespace=wrap;verticalLabelPosition=bottom;verticalAlign=top;fillColor=#2875E2;strokeColor=#ffffff;points=[[0.005,0.63,0],[0.1,0.2,0],[0.9,0.2,0],[0.5,0,0],[0.995,0.63,0],[0.72,0.99,0],[0.5,1,0],[0.28,0.99,0]];shape=mxgraph.kubernetes.icon2;kubernetesLabel=1;prIcon=pod" vertex="1" parent="1">
          <mxGeometry x="590" y="390" width="50" height="48" as="geometry" />
        </mxCell>
        <mxCell id="OLYzyWEOcMifiOYD3r6g-22" style="edgeStyle=orthogonalEdgeStyle;rounded=0;orthogonalLoop=1;jettySize=auto;html=1;exitX=0.995;exitY=0.63;exitDx=0;exitDy=0;exitPerimeter=0;entryX=0.005;entryY=0.63;entryDx=0;entryDy=0;entryPerimeter=0;" edge="1" parent="1" source="OLYzyWEOcMifiOYD3r6g-15" target="OLYzyWEOcMifiOYD3r6g-6">
          <mxGeometry relative="1" as="geometry" />
        </mxCell>
        <mxCell id="OLYzyWEOcMifiOYD3r6g-24" style="edgeStyle=orthogonalEdgeStyle;rounded=0;orthogonalLoop=1;jettySize=auto;html=1;exitX=0.995;exitY=0.63;exitDx=0;exitDy=0;exitPerimeter=0;entryX=0.005;entryY=0.63;entryDx=0;entryDy=0;entryPerimeter=0;" edge="1" parent="1" source="OLYzyWEOcMifiOYD3r6g-15" target="OLYzyWEOcMifiOYD3r6g-19">
          <mxGeometry relative="1" as="geometry" />
        </mxCell>
        <mxCell id="OLYzyWEOcMifiOYD3r6g-25" style="edgeStyle=orthogonalEdgeStyle;rounded=0;orthogonalLoop=1;jettySize=auto;html=1;exitX=0.995;exitY=0.63;exitDx=0;exitDy=0;exitPerimeter=0;entryX=0.005;entryY=0.63;entryDx=0;entryDy=0;entryPerimeter=0;" edge="1" parent="1" source="OLYzyWEOcMifiOYD3r6g-15" target="OLYzyWEOcMifiOYD3r6g-20">
          <mxGeometry relative="1" as="geometry" />
        </mxCell>
        <mxCell id="OLYzyWEOcMifiOYD3r6g-26" style="edgeStyle=orthogonalEdgeStyle;rounded=0;orthogonalLoop=1;jettySize=auto;html=1;exitX=0.5;exitY=1;exitDx=0;exitDy=0;exitPerimeter=0;entryX=0.5;entryY=0;entryDx=0;entryDy=0;entryPerimeter=0;" edge="1" parent="1" source="OLYzyWEOcMifiOYD3r6g-8" target="OLYzyWEOcMifiOYD3r6g-15">
          <mxGeometry relative="1" as="geometry" />
        </mxCell>
        <mxCell id="OLYzyWEOcMifiOYD3r6g-27" style="edgeStyle=orthogonalEdgeStyle;rounded=0;orthogonalLoop=1;jettySize=auto;html=1;exitX=0.995;exitY=0.63;exitDx=0;exitDy=0;exitPerimeter=0;entryX=0.005;entryY=0.63;entryDx=0;entryDy=0;entryPerimeter=0;" edge="1" parent="1" source="OLYzyWEOcMifiOYD3r6g-19" target="OLYzyWEOcMifiOYD3r6g-2">
          <mxGeometry relative="1" as="geometry" />
        </mxCell>
        <mxCell id="OLYzyWEOcMifiOYD3r6g-29" style="edgeStyle=orthogonalEdgeStyle;rounded=0;orthogonalLoop=1;jettySize=auto;html=1;exitX=0.995;exitY=0.63;exitDx=0;exitDy=0;exitPerimeter=0;entryX=0.005;entryY=0.63;entryDx=0;entryDy=0;entryPerimeter=0;" edge="1" parent="1" source="OLYzyWEOcMifiOYD3r6g-20" target="OLYzyWEOcMifiOYD3r6g-2">
          <mxGeometry relative="1" as="geometry" />
        </mxCell>
        <mxCell id="OLYzyWEOcMifiOYD3r6g-30" style="edgeStyle=orthogonalEdgeStyle;rounded=0;orthogonalLoop=1;jettySize=auto;html=1;exitX=0.5;exitY=0;exitDx=0;exitDy=0;exitPerimeter=0;entryX=0.5;entryY=1;entryDx=0;entryDy=0;entryPerimeter=0;" edge="1" parent="1" source="OLYzyWEOcMifiOYD3r6g-11" target="OLYzyWEOcMifiOYD3r6g-15">
          <mxGeometry relative="1" as="geometry" />
        </mxCell>
        <mxCell id="OLYzyWEOcMifiOYD3r6g-31" style="edgeStyle=orthogonalEdgeStyle;rounded=0;orthogonalLoop=1;jettySize=auto;html=1;exitX=0.5;exitY=0;exitDx=0;exitDy=0;exitPerimeter=0;entryX=0.5;entryY=1;entryDx=0;entryDy=0;entryPerimeter=0;" edge="1" parent="1" source="OLYzyWEOcMifiOYD3r6g-14" target="OLYzyWEOcMifiOYD3r6g-12">
          <mxGeometry relative="1" as="geometry" />
        </mxCell>
        <mxCell id="OLYzyWEOcMifiOYD3r6g-32" style="edgeStyle=orthogonalEdgeStyle;rounded=0;orthogonalLoop=1;jettySize=auto;html=1;exitX=0.995;exitY=0.63;exitDx=0;exitDy=0;exitPerimeter=0;entryX=0.005;entryY=0.63;entryDx=0;entryDy=0;entryPerimeter=0;" edge="1" parent="1" source="OLYzyWEOcMifiOYD3r6g-2" target="OLYzyWEOcMifiOYD3r6g-12">
          <mxGeometry relative="1" as="geometry" />
        </mxCell>
        <mxCell id="OLYzyWEOcMifiOYD3r6g-33" style="edgeStyle=orthogonalEdgeStyle;rounded=0;orthogonalLoop=1;jettySize=auto;html=1;exitX=0.995;exitY=0.63;exitDx=0;exitDy=0;exitPerimeter=0;entryX=0.005;entryY=0.63;entryDx=0;entryDy=0;entryPerimeter=0;" edge="1" parent="1" source="OLYzyWEOcMifiOYD3r6g-7" target="OLYzyWEOcMifiOYD3r6g-4">
          <mxGeometry relative="1" as="geometry" />
        </mxCell>
        <mxCell id="OLYzyWEOcMifiOYD3r6g-34" style="edgeStyle=orthogonalEdgeStyle;rounded=0;orthogonalLoop=1;jettySize=auto;html=1;exitX=0.5;exitY=1;exitDx=0;exitDy=0;exitPerimeter=0;entryX=0.5;entryY=0;entryDx=0;entryDy=0;entryPerimeter=0;" edge="1" parent="1" source="OLYzyWEOcMifiOYD3r6g-4" target="OLYzyWEOcMifiOYD3r6g-12">
          <mxGeometry relative="1" as="geometry" />
        </mxCell>
        <mxCell id="OLYzyWEOcMifiOYD3r6g-35" value="EasyorderDatabase" style="aspect=fixed;sketch=0;html=1;dashed=0;whitespace=wrap;verticalLabelPosition=bottom;verticalAlign=top;fillColor=#2875E2;strokeColor=#ffffff;points=[[0.005,0.63,0],[0.1,0.2,0],[0.9,0.2,0],[0.5,0,0],[0.995,0.63,0],[0.72,0.99,0],[0.5,1,0],[0.28,0.99,0]];shape=mxgraph.kubernetes.icon2;kubernetesLabel=1;prIcon=pod" vertex="1" parent="1">
          <mxGeometry x="900" y="328" width="50" height="48" as="geometry" />
        </mxCell>
        <mxCell id="OLYzyWEOcMifiOYD3r6g-36" style="edgeStyle=orthogonalEdgeStyle;rounded=0;orthogonalLoop=1;jettySize=auto;html=1;exitX=0.995;exitY=0.63;exitDx=0;exitDy=0;exitPerimeter=0;entryX=0.005;entryY=0.63;entryDx=0;entryDy=0;entryPerimeter=0;" edge="1" parent="1" source="OLYzyWEOcMifiOYD3r6g-12" target="OLYzyWEOcMifiOYD3r6g-35">
          <mxGeometry relative="1" as="geometry" />
        </mxCell>
        <mxCell id="OLYzyWEOcMifiOYD3r6g-39" value="" style="aspect=fixed;sketch=0;html=1;dashed=0;whitespace=wrap;verticalLabelPosition=bottom;verticalAlign=top;fillColor=#2875E2;strokeColor=#ffffff;points=[[0.005,0.63,0],[0.1,0.2,0],[0.9,0.2,0],[0.5,0,0],[0.995,0.63,0],[0.72,0.99,0],[0.5,1,0],[0.28,0.99,0]];shape=mxgraph.kubernetes.icon2;prIcon=user" vertex="1" parent="1">
          <mxGeometry x="200" y="328" width="50" height="48" as="geometry" />
        </mxCell>
        <mxCell id="OLYzyWEOcMifiOYD3r6g-40" style="edgeStyle=orthogonalEdgeStyle;rounded=0;orthogonalLoop=1;jettySize=auto;html=1;exitX=0.995;exitY=0.63;exitDx=0;exitDy=0;exitPerimeter=0;entryX=0.005;entryY=0.63;entryDx=0;entryDy=0;entryPerimeter=0;" edge="1" parent="1" source="OLYzyWEOcMifiOYD3r6g-39" target="OLYzyWEOcMifiOYD3r6g-3">
          <mxGeometry relative="1" as="geometry" />
        </mxCell>
        <mxCell id="OLYzyWEOcMifiOYD3r6g-44" value="MiniKube - Docker Desktop" style="rounded=1;arcSize=9;align=left;spacingLeft=5;strokeColor=#4C9AFF;html=1;strokeWidth=2;fontSize=12" vertex="1" parent="1">
          <mxGeometry x="570" y="157" width="165" height="33" as="geometry" />
        </mxCell>
      </root>
    </mxGraphModel>
  </diagram>
</mxfile>
